<?xml version="1.0" encoding="utf-8"?>
<!-- Generator: Adobe Illustrator 24.2.3, SVG Export Plug-In . SVG Version: 6.00 Build 0)  -->
<svg version="1.1" id="レイヤー_2" xmlns="http://www.w3.org/2000/svg" xmlns:xlink="http://www.w3.org/1999/xlink" x="0px"
	 y="0px" viewBox="0 0 140 20" style="enable-background:new 0 0 140 20;" xml:space="preserve">
<style type="text/css">
	.st0{fill:#FFFFFF;}
	.st1{fill:none;stroke:#FFFFFF;stroke-width:2;stroke-linecap:square;stroke-miterlimit:10;}
</style>
<g>
	<g>
		<path class="st0" d="M69.6,20.1V2.9h5.5c1.1,0,2,0.1,2.7,0.3c0.8,0.2,1.4,0.5,1.9,0.9c0.5,0.4,0.9,0.9,1.1,1.4s0.4,1.2,0.4,1.9
			c0,0.4-0.1,0.8-0.2,1.2c-0.1,0.4-0.3,0.8-0.6,1.1s-0.6,0.6-1,0.9c-0.4,0.3-0.9,0.5-1.4,0.6c1.3,0.2,2.2,0.7,2.8,1.4
			c0.6,0.7,1,1.5,1,2.6c0,0.7-0.1,1.4-0.4,2c-0.3,0.6-0.7,1.1-1.2,1.5s-1.1,0.8-1.9,1s-1.6,0.4-2.6,0.4H69.6z M72,10.6H75
			c0.7,0,1.2-0.1,1.7-0.2s0.9-0.3,1.2-0.6c0.3-0.3,0.5-0.6,0.7-0.9c0.2-0.4,0.2-0.8,0.2-1.2c0-1-0.3-1.7-0.9-2.2s-1.6-0.7-2.8-0.7
			H72V10.6z M72,12.3v6h3.7c0.7,0,1.2-0.1,1.7-0.2c0.5-0.2,0.9-0.4,1.2-0.6c0.3-0.3,0.5-0.6,0.7-1c0.1-0.4,0.2-0.8,0.2-1.3
			c0-0.9-0.3-1.6-0.9-2.1c-0.6-0.5-1.6-0.8-2.9-0.8H72z"/>
		<path class="st0" d="M102.4,20.1h-1.8c-0.2,0-0.4-0.1-0.5-0.2c-0.1-0.1-0.2-0.2-0.3-0.4l-1.6-4.2h-7.7l-1.6,4.2
			c-0.1,0.1-0.2,0.3-0.3,0.4c-0.1,0.1-0.3,0.2-0.5,0.2h-1.8l6.9-17.2h2.4L102.4,20.1z M91.1,13.7h6.4l-2.7-7c-0.2-0.4-0.3-1-0.5-1.6
			c-0.1,0.3-0.2,0.6-0.3,0.9c-0.1,0.3-0.2,0.5-0.2,0.7L91.1,13.7z"/>
		<path class="st0" d="M119.2,16.6c0.1,0,0.2,0.1,0.3,0.2l0.9,1c-0.7,0.8-1.6,1.5-2.6,1.9s-2.2,0.7-3.6,0.7c-1.2,0-2.4-0.2-3.4-0.6
			c-1-0.4-1.9-1-2.6-1.8c-0.7-0.8-1.3-1.7-1.7-2.8c-0.4-1.1-0.6-2.3-0.6-3.6c0-1.3,0.2-2.5,0.6-3.6c0.4-1.1,1-2,1.8-2.8
			c0.8-0.8,1.7-1.4,2.7-1.8c1.1-0.4,2.2-0.6,3.5-0.6c1.3,0,2.4,0.2,3.3,0.6c0.9,0.4,1.7,0.9,2.4,1.6L119.7,6
			c-0.1,0.1-0.1,0.1-0.2,0.2c-0.1,0.1-0.2,0.1-0.3,0.1c-0.1,0-0.2,0-0.3-0.1c-0.1-0.1-0.3-0.2-0.4-0.3c-0.2-0.1-0.3-0.2-0.6-0.4
			c-0.2-0.1-0.5-0.2-0.8-0.4c-0.3-0.1-0.6-0.2-1-0.3s-0.8-0.1-1.4-0.1c-0.9,0-1.8,0.2-2.5,0.5c-0.8,0.3-1.4,0.8-2,1.4
			c-0.6,0.6-1,1.3-1.3,2.1c-0.3,0.8-0.5,1.8-0.5,2.8c0,1.1,0.2,2,0.5,2.9c0.3,0.8,0.7,1.6,1.3,2.1c0.5,0.6,1.2,1,1.9,1.3
			c0.7,0.3,1.5,0.5,2.4,0.5c0.5,0,1,0,1.4-0.1c0.4-0.1,0.8-0.2,1.1-0.3s0.7-0.3,1-0.5c0.3-0.2,0.6-0.4,0.9-0.7
			C119,16.6,119.1,16.6,119.2,16.6z"/>
		<path class="st0" d="M129.2,10.4h0.9c0.3,0,0.5,0,0.7-0.1c0.2-0.1,0.3-0.2,0.5-0.4l5.7-6.5c0.2-0.2,0.3-0.3,0.5-0.4
			c0.2-0.1,0.4-0.1,0.6-0.1h2l-6.6,7.4c-0.2,0.2-0.3,0.3-0.5,0.5c-0.1,0.1-0.3,0.2-0.5,0.3c0.2,0.1,0.4,0.2,0.6,0.3s0.3,0.3,0.5,0.5
			l6.8,8.1h-2c-0.2,0-0.3,0-0.4,0S138,20,137.9,20c-0.1,0-0.1-0.1-0.2-0.2c-0.1-0.1-0.1-0.1-0.2-0.2l-5.9-6.8
			c-0.1-0.1-0.2-0.2-0.2-0.2s-0.2-0.1-0.3-0.2c-0.1,0-0.2-0.1-0.3-0.1s-0.3,0-0.5,0h-1.1v7.9h-2.3V2.9h2.3V10.4z"/>
	</g>
	<polyline class="st1" points="50.5,18.1 2.5,18.1 19.5,2.5 	"/>
</g>
</svg>
