<?xml version="1.0" encoding="utf-8"?>
<!-- Generator: Adobe Illustrator 24.2.3, SVG Export Plug-In . SVG Version: 6.00 Build 0)  -->
<svg version="1.1" id="レイヤー_2_1_" xmlns="http://www.w3.org/2000/svg" xmlns:xlink="http://www.w3.org/1999/xlink" x="0px"
	 y="0px" viewBox="0 0 140 20" style="enable-background:new 0 0 140 20;" xml:space="preserve">
<style type="text/css">
	.st0{fill:none;stroke:#FFFFFF;stroke-width:2;stroke-linecap:square;stroke-miterlimit:10;}
	.st1{fill:#FFFFFF;}
</style>
<polyline class="st0" points="90.6,17.1 138.6,17.1 121.6,1.5 "/>
<g>
	<path class="st1" d="M10.5,4.1c-0.1,0.1-0.1,0.2-0.2,0.3c-0.1,0.1-0.2,0.1-0.3,0.1c-0.1,0-0.3-0.1-0.5-0.2C9.3,4.1,9.1,4,8.8,3.8
		c-0.3-0.2-0.6-0.3-1-0.5C7.4,3.2,7,3.1,6.4,3.1c-0.5,0-1,0.1-1.4,0.2C4.6,3.5,4.3,3.7,4,3.9C3.8,4.2,3.6,4.4,3.4,4.8
		C3.3,5.1,3.2,5.4,3.2,5.8c0,0.5,0.1,0.9,0.4,1.2c0.2,0.3,0.5,0.6,0.9,0.8C4.9,8,5.3,8.2,5.8,8.4s1,0.3,1.5,0.5
		c0.5,0.2,1,0.4,1.5,0.6c0.5,0.2,0.9,0.5,1.3,0.8c0.4,0.3,0.7,0.7,0.9,1.2c0.2,0.5,0.4,1.1,0.4,1.8c0,0.8-0.1,1.5-0.4,2.1
		s-0.6,1.2-1.1,1.7c-0.5,0.5-1.1,0.9-1.8,1.2s-1.5,0.4-2.4,0.4c-1.1,0-2.1-0.2-3-0.6c-0.9-0.4-1.7-0.9-2.3-1.6L1,15.4
		c0.1-0.1,0.1-0.2,0.2-0.2c0.1-0.1,0.2-0.1,0.3-0.1c0.2,0,0.4,0.1,0.6,0.3c0.2,0.2,0.5,0.4,0.8,0.6c0.3,0.2,0.7,0.4,1.2,0.6
		c0.5,0.2,1,0.3,1.7,0.3c0.6,0,1-0.1,1.5-0.2C7.7,16.5,8,16.3,8.3,16c0.3-0.3,0.5-0.6,0.7-1c0.2-0.4,0.2-0.8,0.2-1.3
		c0-0.5-0.1-0.9-0.4-1.3c-0.2-0.3-0.5-0.6-0.9-0.8c-0.4-0.2-0.8-0.4-1.3-0.6c-0.5-0.2-1-0.3-1.5-0.5c-0.5-0.2-1-0.4-1.5-0.6
		C3.2,9.8,2.7,9.5,2.3,9.1C2,8.8,1.6,8.4,1.4,7.9S1.1,6.7,1.1,5.9c0-0.6,0.1-1.2,0.4-1.8s0.6-1.1,1-1.5c0.4-0.4,1-0.8,1.7-1.1
		c0.7-0.3,1.4-0.4,2.3-0.4c1,0,1.8,0.2,2.6,0.5C9.8,2,10.5,2.4,11.1,3L10.5,4.1z"/>
	<path class="st1" d="M24.3,8.9h0.9c0.3,0,0.5,0,0.7-0.1c0.2-0.1,0.3-0.2,0.5-0.4L32.2,2c0.2-0.2,0.3-0.3,0.5-0.4
		c0.2-0.1,0.4-0.1,0.6-0.1h2l-6.6,7.4c-0.2,0.2-0.3,0.3-0.5,0.5c-0.1,0.1-0.3,0.2-0.5,0.3c0.2,0.1,0.4,0.2,0.6,0.3s0.3,0.3,0.5,0.5
		l6.8,8.1h-2c-0.2,0-0.3,0-0.4,0s-0.2-0.1-0.3-0.1c-0.1,0-0.1-0.1-0.2-0.2c-0.1-0.1-0.1-0.1-0.2-0.2l-5.9-6.8
		c-0.1-0.1-0.2-0.2-0.2-0.2s-0.2-0.1-0.3-0.2c-0.1,0-0.2-0.1-0.3-0.1s-0.3,0-0.5,0h-1.1v7.9H22V1.4h2.3V8.9z"/>
	<path class="st1" d="M48.3,18.6h-2.3V1.4h2.3V18.6z"/>
	<path class="st1" d="M62.8,12.2v6.4h-2.3V1.4h5.1c1.1,0,2,0.1,2.8,0.4c0.8,0.3,1.5,0.6,2,1.1c0.5,0.5,0.9,1,1.2,1.7
		C71.8,5.2,72,5.9,72,6.7c0,0.8-0.1,1.5-0.4,2.2c-0.3,0.7-0.7,1.2-1.2,1.7s-1.2,0.9-2,1.1s-1.7,0.4-2.7,0.4H62.8z M62.8,10.3h2.8
		c0.7,0,1.2-0.1,1.8-0.3c0.5-0.2,0.9-0.4,1.3-0.7c0.3-0.3,0.6-0.7,0.8-1.1c0.2-0.4,0.3-0.9,0.3-1.5c0-1.1-0.3-2-1-2.6
		c-0.7-0.6-1.7-0.9-3.1-0.9h-2.8V10.3z"/>
</g>
</svg>
